<?xml version="1.0" encoding="UTF-8" standalone="no"?>
<svg
   xmlns:dc="http://purl.org/dc/elements/1.1/"
   xmlns:cc="http://creativecommons.org/ns#"
   xmlns:rdf="http://www.w3.org/1999/02/22-rdf-syntax-ns#"
   xmlns:svg="http://www.w3.org/2000/svg"
   xmlns="http://www.w3.org/2000/svg"
   xmlns:sodipodi="http://sodipodi.sourceforge.net/DTD/sodipodi-0.dtd"
   xmlns:inkscape="http://www.inkscape.org/namespaces/inkscape"
   version="1.1"
   id="svg2"
   xml:space="preserve"
   width="793.70667"
   height="262.56"
   viewBox="0 0 793.70667 262.56"
   sodipodi:docname="Logo Tecnoliquid.ai"><metadata
     id="metadata8"><rdf:RDF><cc:Work
         rdf:about=""><dc:format>image/svg+xml</dc:format><dc:type
           rdf:resource="http://purl.org/dc/dcmitype/StillImage" /></cc:Work></rdf:RDF></metadata><defs
     id="defs6"><clipPath
       clipPathUnits="userSpaceOnUse"
       id="clipPath18"><path
         d="M 0,196.92 H 595.28 V 0 H 0 Z"
         id="path16" /></clipPath></defs><sodipodi:namedview
     pagecolor="#ffffff"
     bordercolor="#666666"
     borderopacity="1"
     objecttolerance="10"
     gridtolerance="10"
     guidetolerance="10"
     inkscape:pageopacity="0"
     inkscape:pageshadow="2"
     inkscape:window-width="640"
     inkscape:window-height="480"
     id="namedview4" /><g
     id="g10"
     inkscape:groupmode="layer"
     inkscape:label="Logo Tecnoliquid"
     transform="matrix(1.3333333,0,0,-1.3333333,0,262.56)"><g
       id="g12"><g
         id="g14"
         clip-path="url(#clipPath18)"><g
           id="g20"
           transform="translate(529.5854,196.8915)"><path
             d="m 0,0 -31.816,-31.816 c -19.652,-19.652 -45.92,-30.477 -73.956,-30.477 -28.036,0 -54.304,10.825 -73.966,30.477 L -211.551,0 H -274.9 l 63.487,-63.491 c 28.123,-28.115 65.635,-43.602 105.641,-43.602 40.005,0 77.518,15.487 105.632,43.602 L 63.351,0 Z"
             style="fill:#231f20;fill-opacity:1;fill-rule:nonzero;stroke:none"
             id="path22" /></g><g
           id="g24"
           transform="translate(11.1451,37.5877)"><path
             d="m 0,0 h -9.747 c -0.701,0 -1.211,0.574 -1.211,1.21 v 5.227 c 0,0.636 0.51,1.21 1.211,1.21 h 27.842 c 0.7,0 1.21,-0.574 1.21,-1.21 V 1.21 C 19.305,0.574 18.795,0 18.095,0 H 8.347 v -35.741 c 0,-0.636 -0.574,-1.21 -1.211,-1.21 H 1.21 c -0.636,0 -1.21,0.574 -1.21,1.21 z"
             style="fill:#90bee2;fill-opacity:1;fill-rule:nonzero;stroke:none"
             id="path26" /></g><g
           id="g28"
           transform="translate(55.3332,44.0242)"><path
             d="m 0,0 c 0,0.636 0.51,1.21 1.21,1.21 h 25.93 c 0.7,0 1.21,-0.574 1.21,-1.21 v -5.226 c 0,-0.637 -0.51,-1.211 -1.21,-1.211 H 8.281 v -10.448 h 15.738 c 0.636,0 1.21,-0.574 1.21,-1.21 v -5.288 c 0,-0.7 -0.574,-1.21 -1.21,-1.21 H 8.281 v -11.15 H 27.14 c 0.7,0 1.21,-0.573 1.21,-1.211 v -5.224 c 0,-0.636 -0.51,-1.21 -1.21,-1.21 H 1.21 c -0.7,0 -1.21,0.574 -1.21,1.21 z"
             style="fill:#90bee2;fill-opacity:1;fill-rule:nonzero;stroke:none"
             id="path30" /></g><g
           id="g32"
           transform="translate(131.565,45.8709)"><path
             d="m 0,0 c 6.437,0 11.087,-2.039 15.42,-5.924 0.572,-0.511 0.572,-1.275 0.062,-1.785 l -3.886,-4.013 c -0.446,-0.511 -1.082,-0.511 -1.592,0 -2.678,2.357 -6.245,3.759 -9.812,3.759 -8.155,0 -14.207,-6.818 -14.207,-14.846 0,-7.962 6.116,-14.718 14.271,-14.718 3.822,0 7.07,1.465 9.748,3.632 0.51,0.446 1.21,0.382 1.592,0 l 3.95,-4.077 c 0.51,-0.446 0.382,-1.275 -0.064,-1.721 C 11.15,-43.897 5.67,-45.871 0,-45.871 c -12.74,0 -22.998,10.13 -22.998,22.87 C -22.998,-10.258 -12.74,0 0,0"
             style="fill:#90bee2;fill-opacity:1;fill-rule:nonzero;stroke:none"
             id="path34" /></g><g
           id="g36"
           transform="translate(172.3239,44.7244)"><path
             d="m 0,0 c 0,0.636 0.572,1.146 1.21,1.146 h 1.593 l 26.504,-28.16 h 0.064 v 26.313 c 0,0.637 0.511,1.211 1.21,1.211 h 5.861 c 0.638,0 1.21,-0.574 1.21,-1.211 v -42.877 c 0,-0.639 -0.572,-1.147 -1.21,-1.147 H 34.913 L 8.281,-15.482 H 8.219 v -27.396 c 0,-0.637 -0.511,-1.211 -1.21,-1.211 H 1.21 c -0.638,0 -1.21,0.574 -1.21,1.211 z"
             style="fill:#90bee2;fill-opacity:1;fill-rule:nonzero;stroke:none"
             id="path38" /></g><g
           id="g40"
           transform="translate(257.7313,8.2807)"><path
             d="m 0,0 c 8.027,0 14.654,6.562 14.654,14.589 0,8.03 -6.627,14.718 -14.654,14.718 -8.029,0 -14.592,-6.688 -14.592,-14.718 C -14.592,6.562 -8.029,0 0,0 m 0,37.59 c 12.74,0 22.935,-10.258 22.935,-23.001 0,-12.74 -10.195,-22.87 -22.935,-22.87 -12.742,0 -22.873,10.13 -22.873,22.87 0,12.743 10.131,23.001 22.873,23.001"
             style="fill:#90bee2;fill-opacity:1;fill-rule:nonzero;stroke:none"
             id="path42" /></g><g
           id="g44"
           transform="translate(305.5486,44.0242)"><path
             d="m 0,0 c 0,0.636 0.51,1.21 1.21,1.21 h 5.861 c 0.637,0 1.21,-0.574 1.21,-1.21 v -35.743 h 16.248 c 0.7,0 1.21,-0.573 1.21,-1.211 v -5.224 c 0,-0.636 -0.51,-1.21 -1.21,-1.21 H 1.21 c -0.7,0 -1.21,0.574 -1.21,1.21 z"
             style="fill:#64a7d4;fill-opacity:1;fill-rule:nonzero;stroke:none"
             id="path46" /></g><g
           id="g48"
           transform="translate(356.1711,44.0242)"><path
             d="M 0,0 C 0,0.636 0.572,1.21 1.21,1.21 H 7.134 C 7.773,1.21 8.345,0.636 8.345,0 v -42.178 c 0,-0.636 -0.572,-1.21 -1.211,-1.21 H 1.21 c -0.638,0 -1.21,0.574 -1.21,1.21 z"
             style="fill:#64a7d4;fill-opacity:1;fill-rule:nonzero;stroke:none"
             id="path50" /></g><g
           id="g52"
           transform="translate(460.7303,44.0242)"><path
             d="m 0,0 c 0,0.636 0.574,1.21 1.21,1.21 h 6.055 c 0.7,0 1.211,-0.574 1.211,-1.21 v -26.06 c 0,-5.414 3.692,-9.683 9.236,-9.683 5.543,0 9.302,4.269 9.302,9.621 V 0 c 0,0.636 0.51,1.21 1.211,1.21 h 6.052 c 0.638,0 1.211,-0.574 1.211,-1.21 v -26.504 c 0,-9.685 -7.71,-17.52 -17.776,-17.52 C 7.708,-44.024 0,-36.189 0,-26.504 Z"
             style="fill:#64a7d4;fill-opacity:1;fill-rule:nonzero;stroke:none"
             id="path54" /></g><g
           id="g56"
           transform="translate(521.1004,43.8961)"><path
             d="M 0,0 C 0,0.636 0.572,1.21 1.21,1.21 H 7.134 C 7.773,1.21 8.345,0.636 8.345,0 v -42.178 c 0,-0.636 -0.572,-1.21 -1.211,-1.21 H 1.21 c -0.638,0 -1.21,0.574 -1.21,1.21 z"
             style="fill:#64a7d4;fill-opacity:1;fill-rule:nonzero;stroke:none"
             id="path58" /></g><g
           id="g60"
           transform="translate(569.8101,8.2807)"><path
             d="M 0,0 C 8.281,0 14.335,6.245 14.335,14.589 14.335,22.873 8.281,29.117 0,29.117 H -7.263 V 0 Z m -15.482,35.615 c 0,0.637 0.511,1.211 1.147,1.211 H 0.764 c 12.297,0 22.362,-10.004 22.362,-22.237 0,-12.36 -10.065,-22.362 -22.362,-22.362 h -15.099 c -0.636,0 -1.147,0.574 -1.147,1.211 z"
             style="fill:#64a7d4;fill-opacity:1;fill-rule:nonzero;stroke:none"
             id="path62" /></g><g
           id="g64"
           transform="translate(412.2714,8.2807)"><path
             d="m 0,0 c 8.027,0 14.654,6.562 14.654,14.589 0,8.03 -6.627,14.718 -14.654,14.718 -8.029,0 -14.592,-6.688 -14.592,-14.718 C -14.592,6.562 -8.029,0 0,0 m 0,37.59 c 12.74,0 22.934,-10.258 22.934,-23.001 0,-12.74 -10.194,-22.87 -22.934,-22.87 -12.742,0 -22.873,10.13 -22.873,22.87 0,12.743 10.131,23.001 22.873,23.001"
             style="fill:#64a7d4;fill-opacity:1;fill-rule:nonzero;stroke:none"
             id="path66" /></g><g
           id="g68"
           transform="translate(422.4506,4.2729)"><path
             d="m 0,0 c -0.45,0.45 -0.452,1.26 0,1.712 l 4.189,4.189 c 0.451,0.451 1.262,0.45 1.712,0 l 7.158,-7.159 c 0.45,-0.449 0.451,-1.26 0,-1.711 L 8.87,-7.158 c -0.451,-0.452 -1.262,-0.45 -1.712,0 z"
             style="fill:#64a7d4;fill-opacity:1;fill-rule:nonzero;stroke:none"
             id="path70" /></g><g
           id="g72"
           transform="translate(282.7922,118.7795)"><path
             d="m 0,0 c 7.084,5.383 17.191,4.003 22.573,-3.081 5.383,-7.084 4.004,-17.19 -3.08,-22.573 -7.084,-5.383 -17.191,-4.003 -22.574,3.081 C -8.463,-15.489 -7.084,-5.383 0,0"
             style="fill:#231f20;fill-opacity:1;fill-rule:nonzero;stroke:none"
             id="path74" /></g><g
           id="g76"
           transform="translate(65.0866,105.1198)"><path
             d="M 0,0 C -8.062,0.423 -14.254,7.302 -13.831,15.363 -13.408,23.425 -6.53,29.617 1.532,29.194 9.594,28.771 15.786,21.893 15.363,13.831 14.94,5.769 8.062,-0.423 0,0"
             style="fill:#231f20;fill-opacity:1;fill-rule:nonzero;stroke:none"
             id="path78" /></g><g
           id="g80"
           transform="translate(90.5424,134.3668)"><path
             d="M 0,0 C 1.748,1.329 4.242,0.988 5.571,-0.76 6.899,-2.508 6.558,-5.002 4.81,-6.331 3.062,-7.659 0.568,-7.319 -0.76,-5.571 -2.088,-3.823 -1.748,-1.329 0,0"
             style="fill:#231f20;fill-opacity:1;fill-rule:nonzero;stroke:none"
             id="path82" /></g><g
           id="g84"
           transform="translate(131.4055,168.9049)"><path
             d="M 0,0 C 1.443,1.096 3.501,0.815 4.597,-0.627 5.693,-2.07 5.412,-4.128 3.969,-5.224 2.526,-6.32 0.469,-6.039 -0.627,-4.597 -1.723,-3.154 -1.443,-1.096 0,0"
             style="fill:#231f20;fill-opacity:1;fill-rule:nonzero;stroke:none"
             id="path86" /></g><g
           id="g88"
           transform="translate(267.5122,96.1244)"><path
             d="M 0,0 C 1.548,1.177 3.758,0.875 4.935,-0.674 6.112,-2.222 5.81,-4.431 4.261,-5.608 2.713,-6.786 0.504,-6.483 -0.674,-4.935 -1.851,-3.387 -1.548,-1.177 0,0"
             style="fill:#231f20;fill-opacity:1;fill-rule:nonzero;stroke:none"
             id="path90" /></g><g
           id="g92"
           transform="translate(81.4815,159.5214)"><path
             d="M 0,0 C 2.451,1.862 5.947,1.385 7.81,-1.066 9.672,-3.517 9.195,-7.014 6.744,-8.876 4.293,-10.738 0.797,-10.261 -1.066,-7.81 -2.928,-5.359 -2.451,-1.862 0,0"
             style="fill:#231f20;fill-opacity:1;fill-rule:nonzero;stroke:none"
             id="path94" /></g><g
           id="g96"
           transform="translate(272.0237,101.4675)"><path
             d="M 0,0 C -1.407,-0.495 -2.948,0.242 -3.445,1.649 -3.94,3.056 -3.201,4.598 -1.796,5.094 -0.389,5.589 1.154,4.851 1.649,3.445 2.145,2.038 1.407,0.495 0,0"
             style="fill:#231f20;fill-opacity:1;fill-rule:nonzero;stroke:none"
             id="path98" /></g><g
           id="g100"
           transform="translate(262.7187,98.4714)"><path
             d="M 0,0 C -2.157,-0.76 -4.521,0.373 -5.281,2.528 -6.04,4.685 -4.908,7.049 -2.752,7.809 -0.596,8.57 1.769,7.437 2.528,5.281 3.289,3.124 2.157,0.76 0,0"
             style="fill:#231f20;fill-opacity:1;fill-rule:nonzero;stroke:none"
             id="path102" /></g><g
           id="g104"
           transform="translate(252.5893,112.397)"><path
             d="m 0,0 c -4.731,-1.667 -9.916,0.816 -11.583,5.546 -1.667,4.731 0.816,9.917 5.546,11.584 4.731,1.666 9.916,-0.817 11.583,-5.547 C 7.213,6.853 4.731,1.667 0,0"
             style="fill:#231f20;fill-opacity:1;fill-rule:nonzero;stroke:none"
             id="path106" /></g><g
           id="g108"
           transform="translate(234.3452,126.601)"><path
             d="m 0,0 c -2.379,-0.838 -4.988,0.411 -5.827,2.79 -0.838,2.379 0.411,4.988 2.79,5.826 C -0.657,9.455 1.951,8.206 2.79,5.827 3.628,3.447 2.379,0.838 0,0"
             style="fill:#231f20;fill-opacity:1;fill-rule:nonzero;stroke:none"
             id="path110" /></g><g
           id="g112"
           transform="translate(314.4862,101.6544)"><path
             d="M 0,0 C -1.303,-0.459 -2.733,0.225 -3.192,1.528 -3.651,2.832 -2.966,4.26 -1.663,4.72 -0.36,5.179 1.069,4.495 1.528,3.192 1.987,1.889 1.303,0.459 0,0"
             style="fill:#231f20;fill-opacity:1;fill-rule:nonzero;stroke:none"
             id="path114" /></g><g
           id="g116"
           transform="translate(285.0074,126.8342)"><path
             d="M 0,0 C -2.426,-0.855 -5.085,0.418 -5.94,2.844 -6.795,5.27 -5.521,7.929 -3.096,8.784 -0.67,9.639 1.989,8.365 2.844,5.94 3.699,3.514 2.426,0.854 0,0"
             style="fill:#231f20;fill-opacity:1;fill-rule:nonzero;stroke:none"
             id="path118" /></g><g
           id="g120"
           transform="translate(313.7374,90.0013)"><path
             d="M 0,0 C -2.249,-0.793 -4.714,0.388 -5.507,2.637 -6.3,4.886 -5.119,7.351 -2.871,8.144 -0.621,8.937 1.845,7.756 2.637,5.507 3.429,3.258 2.249,0.793 0,0"
             style="fill:#231f20;fill-opacity:1;fill-rule:nonzero;stroke:none"
             id="path122" /></g><g
           id="g124"
           transform="translate(268.9214,144.9206)"><path
             d="M 0,0 C -1.935,-0.682 -4.056,0.334 -4.738,2.269 -5.42,4.203 -4.404,6.325 -2.469,7.007 -0.534,7.689 1.586,6.672 2.269,4.738 2.95,2.803 1.935,0.681 0,0"
             style="fill:#231f20;fill-opacity:1;fill-rule:nonzero;stroke:none"
             id="path126" /></g><g
           id="g128"
           transform="translate(53.9698,89.8912)"><path
             d="m 0,0 c -3.258,0.171 -5.757,3.033 -5.581,6.393 0.176,3.36 2.96,5.945 6.22,5.774 C 3.897,11.996 6.396,9.134 6.22,5.774 6.043,2.414 3.258,-0.171 0,0"
             style="fill:#231f20;fill-opacity:1;fill-rule:nonzero;stroke:none"
             id="path130" /></g><g
           id="g132"
           transform="translate(30.9059,118.6521)"><path
             d="M 0,0 C -1.987,0.105 -3.512,1.851 -3.405,3.9 -3.297,5.949 -1.599,7.526 0.39,7.422 2.377,7.318 3.902,5.572 3.794,3.523 3.686,1.472 1.987,-0.105 0,0"
             style="fill:#231f20;fill-opacity:1;fill-rule:nonzero;stroke:none"
             id="path134" /></g><g
           id="g136"
           transform="translate(159.2942,191.8958)"><path
             d="m 0,0 c 4.934,5.923 13.734,6.724 19.656,1.79 5.922,-4.934 6.723,-13.734 1.79,-19.656 C 16.512,-23.788 7.712,-24.589 1.79,-19.656 -4.133,-14.722 -4.934,-5.923 0,0"
             style="fill:#231f20;fill-opacity:1;fill-rule:nonzero;stroke:none"
             id="path138" /></g><g
           id="g140"
           transform="translate(80.6981,133.074)"><path
             d="m 0,0 c -3.935,0.206 -6.958,3.564 -6.751,7.499 0.206,3.935 3.564,6.958 7.499,6.752 3.935,-0.207 6.958,-3.565 6.751,-7.5 C 7.293,2.816 3.935,-0.206 0,0"
             style="fill:#231f20;fill-opacity:1;fill-rule:nonzero;stroke:none"
             id="path142" /></g><g
           id="g144"
           transform="translate(60.9109,134.9764)"><path
             d="M 0,0 C -1.739,0.091 -3.075,1.575 -2.984,3.314 -2.892,5.054 -1.409,6.39 0.331,6.299 2.07,6.208 3.406,4.723 3.314,2.984 3.223,1.245 1.739,-0.091 0,0"
             style="fill:#231f20;fill-opacity:1;fill-rule:nonzero;stroke:none"
             id="path146" /></g><g
           id="g148"
           transform="translate(44.7343,127.6543)"><path
             d="m 0,0 c -3.184,0.167 -5.63,2.884 -5.462,6.068 0.167,3.184 2.883,5.63 6.067,5.462 C 3.79,11.363 6.235,8.647 6.068,5.462 5.901,2.278 3.184,-0.167 0,0"
             style="fill:#231f20;fill-opacity:1;fill-rule:nonzero;stroke:none"
             id="path150" /></g><g
           id="g152"
           transform="translate(155.3289,152.2008)"><path
             d="m 0,0 c -4.114,-1.45 -8.624,0.71 -10.073,4.824 -1.45,4.114 0.71,8.623 4.823,10.073 4.114,1.45 8.624,-0.71 10.074,-4.824 C 6.273,5.96 4.114,1.45 0,0"
             style="fill:#231f20;fill-opacity:1;fill-rule:nonzero;stroke:none"
             id="path154" /></g><g
           id="g156"
           transform="translate(263.5446,138.9083)"><path
             d="M 0,0 C 2.451,1.862 5.947,1.385 7.81,-1.066 9.672,-3.517 9.195,-7.014 6.744,-8.876 4.293,-10.738 0.797,-10.261 -1.066,-7.81 -2.928,-5.359 -2.451,-1.862 0,0"
             style="fill:#231f20;fill-opacity:1;fill-rule:nonzero;stroke:none"
             id="path158" /></g><g
           id="g160"
           transform="translate(239.4251,165.4687)"><path
             d="M 0,0 C 5.269,4.003 12.784,2.977 16.788,-2.291 20.79,-7.559 19.765,-15.075 14.496,-19.078 9.228,-23.082 1.712,-22.055 -2.291,-16.788 -6.294,-11.519 -5.269,-4.003 0,0"
             style="fill:#231f20;fill-opacity:1;fill-rule:nonzero;stroke:none"
             id="path162" /></g><g
           id="g164"
           transform="translate(1.3098,97.8299)"><path
             d="M 0,0 C 1.713,2.056 4.768,2.334 6.824,0.622 8.88,-1.091 9.158,-4.147 7.445,-6.203 5.732,-8.259 2.678,-8.536 0.622,-6.824 -1.434,-5.111 -1.713,-2.056 0,0"
             style="fill:#231f20;fill-opacity:1;fill-rule:nonzero;stroke:none"
             id="path166" /></g><g
           id="g168"
           transform="translate(69.7257,156.2232)"><path
             d="m 0,0 c 2.747,-1.045 4.127,-4.118 3.082,-6.864 -1.044,-2.747 -4.118,-4.128 -6.864,-3.083 -2.747,1.045 -4.127,4.118 -3.082,6.865 C -5.82,-0.336 -2.747,1.045 0,0"
             style="fill:#231f20;fill-opacity:1;fill-rule:nonzero;stroke:none"
             id="path170" /></g><g
           id="g172"
           transform="translate(210.147,163.4919)"><path
             d="m 0,0 c -1.997,-4.947 -7.627,-7.339 -12.574,-5.342 -4.947,1.997 -7.339,7.626 -5.342,12.573 1.997,4.949 7.627,7.34 12.574,5.343 C -0.394,10.577 1.997,4.947 0,0"
             style="fill:#231f20;fill-opacity:1;fill-rule:nonzero;stroke:none"
             id="path174" /></g><g
           id="g176"
           transform="translate(39.2226,114.6639)"><path
             d="M 0,0 C 2.316,2.78 6.448,3.157 9.229,0.84 12.01,-1.476 12.386,-5.608 10.07,-8.388 7.753,-11.169 3.62,-11.546 0.84,-9.229 -1.94,-6.912 -2.316,-2.78 0,0"
             style="fill:#231f20;fill-opacity:1;fill-rule:nonzero;stroke:none"
             id="path178" /></g><g
           id="g180"
           transform="translate(177.05,167.7051)"><path
             d="M 0,0 C 1.674,2.009 4.659,2.281 6.669,0.607 8.677,-1.066 8.949,-4.052 7.275,-6.061 5.602,-8.071 2.617,-8.342 0.607,-6.669 -1.402,-4.995 -1.674,-2.009 0,0"
             style="fill:#231f20;fill-opacity:1;fill-rule:nonzero;stroke:none"
             id="path182" /></g><g
           id="g184"
           transform="translate(167.8035,158.6049)"><path
             d="M 0,0 C 1.478,1.774 4.113,2.013 5.886,0.536 7.66,-0.942 7.9,-3.577 6.422,-5.351 4.945,-7.125 2.31,-7.364 0.536,-5.886 -1.238,-4.409 -1.478,-1.774 0,0"
             style="fill:#231f20;fill-opacity:1;fill-rule:nonzero;stroke:none"
             id="path186" /></g><g
           id="g188"
           transform="translate(203.0632,184.7015)"><path
             d="m 0,0 c -1.161,-2.876 -4.433,-4.266 -7.309,-3.105 -2.876,1.16 -4.266,4.433 -3.106,7.309 1.162,2.875 4.434,4.266 7.31,3.105 C -0.229,6.148 1.161,2.876 0,0"
             style="fill:#231f20;fill-opacity:1;fill-rule:nonzero;stroke:none"
             id="path190" /></g><g
           id="g192"
           transform="translate(253.5972,134.9557)"><path
             d="m 0,0 c -0.806,-1.997 -3.078,-2.962 -5.075,-2.156 -1.997,0.806 -2.962,3.078 -2.156,5.075 0.806,1.997 3.078,2.962 5.075,2.156 C -0.16,4.269 0.806,1.997 0,0"
             style="fill:#231f20;fill-opacity:1;fill-rule:nonzero;stroke:none"
             id="path194" /></g><g
           id="g196"
           transform="translate(230.1816,159.1104)"><path
             d="m 0,0 c -1.066,-2.639 -4.148,-3.883 -6.885,-2.777 -2.738,1.104 -4.094,4.14 -3.029,6.779 1.066,2.639 4.148,3.882 6.886,2.777 C -0.291,5.674 1.065,2.639 0,0"
             style="fill:#231f20;fill-opacity:1;fill-rule:nonzero;stroke:none"
             id="path198" /></g><g
           id="g200"
           transform="translate(274.206,115.6331)"><path
             d="m 0,0 c -1.289,-3.193 -4.922,-4.736 -8.114,-3.447 -3.193,1.288 -4.737,4.921 -3.448,8.114 1.289,3.193 4.922,4.736 8.115,3.447 C -0.255,6.826 1.289,3.193 0,0"
             style="fill:#231f20;fill-opacity:1;fill-rule:nonzero;stroke:none"
             id="path202" /></g><g
           id="g204"
           transform="translate(16.3956,112.9997)"><path
             d="M 0,0 C 5.017,3.811 12.173,2.835 15.984,-2.181 19.796,-7.198 18.82,-14.354 13.803,-18.166 8.786,-21.977 1.63,-21.001 -2.181,-15.984 -5.993,-10.968 -5.017,-3.811 0,0"
             style="fill:#231f20;fill-opacity:1;fill-rule:nonzero;stroke:none"
             id="path206" /></g><g
           id="g208"
           transform="translate(239.5919,170.6775)"><path
             d="M 0,0 C -0.933,-2.314 -3.565,-3.431 -5.879,-2.498 -8.191,-1.564 -9.31,1.068 -8.377,3.381 -7.442,5.694 -4.81,6.812 -2.498,5.879 -0.184,4.945 0.933,2.313 0,0"
             style="fill:#231f20;fill-opacity:1;fill-rule:nonzero;stroke:none"
             id="path210" /></g><g
           id="g212"
           transform="translate(218.9252,145.94)"><path
             d="m 0,0 c -1.627,-4.032 -6.215,-5.981 -10.246,-4.353 -4.032,1.627 -5.981,6.215 -4.354,10.246 1.628,4.032 6.215,5.981 10.247,4.353 C -0.321,8.619 1.627,4.032 0,0"
             style="fill:#231f20;fill-opacity:1;fill-rule:nonzero;stroke:none"
             id="path214" /></g><g
           id="g216"
           transform="translate(103.3376,161.251)"><path
             d="m 0,0 c 5.747,2.893 12.751,0.579 15.644,-5.168 2.893,-5.747 0.579,-12.751 -5.168,-15.644 C 4.73,-23.704 -2.275,-21.391 -5.168,-15.644 -8.06,-9.897 -5.747,-2.893 0,0"
             style="fill:#231f20;fill-opacity:1;fill-rule:nonzero;stroke:none"
             id="path218" /></g><g
           id="g220"
           transform="translate(90.162,164.6579)"><path
             d="m 0,0 c -3.831,2.055 -5.271,6.827 -3.216,10.659 2.055,3.83 6.828,5.27 10.658,3.215 C 11.274,11.818 12.714,7.047 10.659,3.216 8.603,-0.616 3.831,-2.055 0,0"
             style="fill:#231f20;fill-opacity:1;fill-rule:nonzero;stroke:none"
             id="path222" /></g><g
           id="g224"
           transform="translate(73.3145,161.9261)"><path
             d="M 0,0 C -1.583,0.849 -2.177,2.819 -1.328,4.402 -0.479,5.983 1.491,6.578 3.074,5.73 4.656,4.881 5.251,2.91 4.402,1.328 3.553,-0.254 1.583,-0.849 0,0"
             style="fill:#231f20;fill-opacity:1;fill-rule:nonzero;stroke:none"
             id="path226" /></g><g
           id="g228"
           transform="translate(54.234,146.9078)"><path
             d="M 0,0 C -1.019,0.547 -1.401,1.815 -0.855,2.833 -0.309,3.852 0.96,4.234 1.979,3.689 2.997,3.142 3.38,1.873 2.833,0.854 2.287,-0.164 1.019,-0.547 0,0"
             style="fill:#231f20;fill-opacity:1;fill-rule:nonzero;stroke:none"
             id="path230" /></g><g
           id="g232"
           transform="translate(151.5454,172.7437)"><path
             d="m 0,0 c -2.565,-1.701 -6.024,-1.002 -7.726,1.564 -1.701,2.565 -1.001,6.024 1.564,7.725 2.565,1.702 6.024,1.002 7.726,-1.563 C 3.265,5.16 2.565,1.701 0,0"
             style="fill:#231f20;fill-opacity:1;fill-rule:nonzero;stroke:none"
             id="path234" /></g><g
           id="g236"
           transform="translate(110.3408,180.7682)"><path
             d="M 0,0 C -1.469,-0.975 -3.451,-0.574 -4.426,0.895 -5.401,2.365 -5,4.347 -3.53,5.321 -2.061,6.296 -0.079,5.895 0.895,4.425 1.871,2.956 1.469,0.975 0,0"
             style="fill:#231f20;fill-opacity:1;fill-rule:nonzero;stroke:none"
             id="path238" /></g><g
           id="g240"
           transform="translate(121.9896,163.5596)"><path
             d="m 0,0 c -3.231,-2.143 -7.587,-1.261 -9.73,1.969 -2.144,3.231 -1.262,7.587 1.969,9.731 3.231,2.143 7.587,1.261 9.73,-1.97 C 4.113,6.499 3.231,2.143 0,0"
             style="fill:#231f20;fill-opacity:1;fill-rule:nonzero;stroke:none"
             id="path242" /></g><g
           id="g244"
           transform="translate(191.647,149.7107)"><path
             d="M 0,0 C -2.274,-1.508 -5.34,-0.888 -6.849,1.386 -8.358,3.66 -7.737,6.727 -5.462,8.235 -3.189,9.743 -0.123,9.123 1.386,6.849 2.894,4.575 2.274,1.508 0,0"
             style="fill:#231f20;fill-opacity:1;fill-rule:nonzero;stroke:none"
             id="path246" /></g><g
           id="g248"
           transform="translate(192.3558,174.7252)"><path
             d="m 0,0 c -1.622,-1.076 -3.81,-0.633 -4.886,0.988 -1.076,1.623 -0.634,3.81 0.989,4.887 1.622,1.076 3.81,0.633 4.885,-0.989 C 2.064,3.264 1.622,1.076 0,0"
             style="fill:#231f20;fill-opacity:1;fill-rule:nonzero;stroke:none"
             id="path250" /></g><g
           id="g252"
           transform="translate(128.4227,179.752)"><path
             d="m 0,0 c -3.057,-2.027 -7.178,-1.194 -9.206,1.863 -2.028,3.057 -1.193,7.178 1.863,9.206 3.057,2.028 7.179,1.193 9.206,-1.863 C 3.89,6.15 3.057,2.027 0,0"
             style="fill:#231f20;fill-opacity:1;fill-rule:nonzero;stroke:none"
             id="path254" /></g><g
           id="g256"
           transform="translate(134.1799,148.6236)"><path
             d="m 0,0 c -2.563,-1.7 -6.019,-1.001 -7.719,1.563 -1.699,2.562 -1,6.018 1.563,7.718 2.562,1.7 6.018,1 7.719,-1.562 C 3.262,5.155 2.563,1.7 0,0"
             style="fill:#231f20;fill-opacity:1;fill-rule:nonzero;stroke:none"
             id="path258" /></g><g
           id="g260"
           transform="translate(95.2647,142.7534)"><path
             d="m 0,0 c -1.15,-0.763 -2.7,-0.449 -3.464,0.701 -0.762,1.15 -0.448,2.701 0.702,3.463 1.149,0.763 2.7,0.45 3.463,-0.7 C 1.464,2.313 1.15,0.763 0,0"
             style="fill:#231f20;fill-opacity:1;fill-rule:nonzero;stroke:none"
             id="path262" /></g><g
           id="g264"
           transform="translate(221.932,172.6147)"><path
             d="m 0,0 c -3.284,-2.179 -7.711,-1.282 -9.89,2.002 -2.178,3.284 -1.282,7.711 2.002,9.89 3.284,2.178 7.711,1.282 9.89,-2.002 C 4.18,6.606 3.284,2.179 0,0"
             style="fill:#231f20;fill-opacity:1;fill-rule:nonzero;stroke:none"
             id="path266" /></g><g
           id="g268"
           transform="translate(144.105,194.6255)"><path
             d="M 0,0 C 1.303,1.564 3.627,1.776 5.191,0.472 6.755,-0.83 6.966,-3.155 5.663,-4.718 4.361,-6.282 2.037,-6.494 0.472,-5.191 -1.091,-3.888 -1.303,-1.564 0,0"
             style="fill:#231f20;fill-opacity:1;fill-rule:nonzero;stroke:none"
             id="path270" /></g><g
           id="g272"
           transform="translate(136.0763,183.5923)"><path
             d="M 0,0 C 0.933,1.121 2.599,1.272 3.719,0.338 4.839,-0.595 4.991,-2.26 4.058,-3.38 3.124,-4.501 1.459,-4.653 0.338,-3.719 -0.782,-2.786 -0.933,-1.121 0,0"
             style="fill:#231f20;fill-opacity:1;fill-rule:nonzero;stroke:none"
             id="path274" /></g><g
           id="g276"
           transform="translate(227.6101,147.0568)"><path
             d="M 0,0 C 1.717,1.304 4.166,0.97 5.47,-0.746 6.774,-2.464 6.441,-4.912 4.724,-6.217 3.007,-7.521 0.558,-7.187 -0.746,-5.47 -2.051,-3.754 -1.717,-1.304 0,0"
             style="fill:#231f20;fill-opacity:1;fill-rule:nonzero;stroke:none"
             id="path278" /></g><g
           id="g280"
           transform="translate(321.6031,94.8948)"><path
             d="M 0,0 C 1.099,1.318 3.058,1.497 4.377,0.398 5.695,-0.7 5.874,-2.659 4.775,-3.978 3.677,-5.297 1.718,-5.475 0.398,-4.377 -0.92,-3.278 -1.099,-1.318 0,0"
             style="fill:#231f20;fill-opacity:1;fill-rule:nonzero;stroke:none"
             id="path282" /></g><g
           id="g284"
           transform="translate(42.1127,93.5018)"><path
             d="m 0,0 c 0,-2.045 -1.659,-3.704 -3.704,-3.704 -2.046,0 -3.703,1.659 -3.703,3.704 0,2.045 1.657,3.704 3.703,3.704 C -1.659,3.704 0,2.045 0,0"
             style="fill:#231f20;fill-opacity:1;fill-rule:nonzero;stroke:none"
             id="path286" /></g><g
           id="g288"
           transform="translate(529.5854,196.8915)"><path
             d="m 0,0 -31.816,-31.816 c -19.652,-19.652 -45.92,-30.477 -73.956,-30.477 -28.036,0 -54.304,10.825 -73.966,30.477 L -211.551,0 H -274.9 l 63.487,-63.491 c 28.123,-28.115 65.635,-43.602 105.641,-43.602 40.005,0 77.518,15.487 105.632,43.602 L 63.351,0 Z"
             style="fill:#90bee2;fill-opacity:1;fill-rule:nonzero;stroke:none"
             id="path290" /></g><g
           id="g292"
           transform="translate(11.1451,37.5877)"><path
             d="m 0,0 h -9.747 c -0.701,0 -1.211,0.574 -1.211,1.21 v 5.227 c 0,0.636 0.51,1.21 1.211,1.21 h 27.842 c 0.7,0 1.21,-0.574 1.21,-1.21 V 1.21 C 19.305,0.574 18.795,0 18.095,0 H 8.347 v -35.741 c 0,-0.636 -0.574,-1.21 -1.211,-1.21 H 1.21 c -0.636,0 -1.21,0.574 -1.21,1.21 z"
             style="fill:#90bee2;fill-opacity:1;fill-rule:nonzero;stroke:none"
             id="path294" /></g><g
           id="g296"
           transform="translate(55.3332,44.0242)"><path
             d="m 0,0 c 0,0.636 0.51,1.21 1.21,1.21 h 25.93 c 0.7,0 1.21,-0.574 1.21,-1.21 v -5.226 c 0,-0.637 -0.51,-1.211 -1.21,-1.211 H 8.281 v -10.448 h 15.738 c 0.636,0 1.21,-0.574 1.21,-1.21 v -5.288 c 0,-0.7 -0.574,-1.21 -1.21,-1.21 H 8.281 v -11.15 H 27.14 c 0.7,0 1.21,-0.573 1.21,-1.211 v -5.224 c 0,-0.636 -0.51,-1.21 -1.21,-1.21 H 1.21 c -0.7,0 -1.21,0.574 -1.21,1.21 z"
             style="fill:#90bee2;fill-opacity:1;fill-rule:nonzero;stroke:none"
             id="path298" /></g><g
           id="g300"
           transform="translate(131.565,45.8709)"><path
             d="m 0,0 c 6.437,0 11.087,-2.039 15.42,-5.924 0.572,-0.511 0.572,-1.275 0.062,-1.785 l -3.886,-4.013 c -0.446,-0.511 -1.082,-0.511 -1.592,0 -2.678,2.357 -6.245,3.759 -9.812,3.759 -8.155,0 -14.207,-6.818 -14.207,-14.846 0,-7.962 6.116,-14.718 14.271,-14.718 3.822,0 7.07,1.465 9.748,3.632 0.51,0.446 1.21,0.382 1.592,0 l 3.95,-4.077 c 0.51,-0.446 0.382,-1.275 -0.064,-1.721 C 11.15,-43.897 5.67,-45.871 0,-45.871 c -12.74,0 -22.998,10.13 -22.998,22.87 C -22.998,-10.258 -12.74,0 0,0"
             style="fill:#90bee2;fill-opacity:1;fill-rule:nonzero;stroke:none"
             id="path302" /></g><g
           id="g304"
           transform="translate(172.3239,44.7244)"><path
             d="m 0,0 c 0,0.636 0.572,1.146 1.21,1.146 h 1.593 l 26.504,-28.16 h 0.064 v 26.313 c 0,0.637 0.511,1.211 1.21,1.211 h 5.861 c 0.638,0 1.21,-0.574 1.21,-1.211 v -42.877 c 0,-0.639 -0.572,-1.147 -1.21,-1.147 H 34.913 L 8.281,-15.482 H 8.219 v -27.396 c 0,-0.637 -0.511,-1.211 -1.21,-1.211 H 1.21 c -0.638,0 -1.21,0.574 -1.21,1.211 z"
             style="fill:#90bee2;fill-opacity:1;fill-rule:nonzero;stroke:none"
             id="path306" /></g><g
           id="g308"
           transform="translate(257.7313,8.2807)"><path
             d="m 0,0 c 8.027,0 14.654,6.562 14.654,14.589 0,8.03 -6.627,14.718 -14.654,14.718 -8.029,0 -14.592,-6.688 -14.592,-14.718 C -14.592,6.562 -8.029,0 0,0 m 0,37.59 c 12.74,0 22.935,-10.258 22.935,-23.001 0,-12.74 -10.195,-22.87 -22.935,-22.87 -12.742,0 -22.873,10.13 -22.873,22.87 0,12.743 10.131,23.001 22.873,23.001"
             style="fill:#90bee2;fill-opacity:1;fill-rule:nonzero;stroke:none"
             id="path310" /></g><g
           id="g312"
           transform="translate(305.5486,44.0242)"><path
             d="m 0,0 c 0,0.636 0.51,1.21 1.21,1.21 h 5.861 c 0.637,0 1.21,-0.574 1.21,-1.21 v -35.743 h 16.248 c 0.7,0 1.21,-0.573 1.21,-1.211 v -5.224 c 0,-0.636 -0.51,-1.21 -1.21,-1.21 H 1.21 c -0.7,0 -1.21,0.574 -1.21,1.21 z"
             style="fill:#64a7d4;fill-opacity:1;fill-rule:nonzero;stroke:none"
             id="path314" /></g><g
           id="g316"
           transform="translate(356.1711,44.0242)"><path
             d="M 0,0 C 0,0.636 0.572,1.21 1.21,1.21 H 7.134 C 7.773,1.21 8.345,0.636 8.345,0 v -42.178 c 0,-0.636 -0.572,-1.21 -1.211,-1.21 H 1.21 c -0.638,0 -1.21,0.574 -1.21,1.21 z"
             style="fill:#64a7d4;fill-opacity:1;fill-rule:nonzero;stroke:none"
             id="path318" /></g><g
           id="g320"
           transform="translate(460.7303,44.0242)"><path
             d="m 0,0 c 0,0.636 0.574,1.21 1.21,1.21 h 6.055 c 0.7,0 1.211,-0.574 1.211,-1.21 v -26.06 c 0,-5.414 3.692,-9.683 9.236,-9.683 5.543,0 9.302,4.269 9.302,9.621 V 0 c 0,0.636 0.51,1.21 1.211,1.21 h 6.052 c 0.638,0 1.211,-0.574 1.211,-1.21 v -26.504 c 0,-9.685 -7.71,-17.52 -17.776,-17.52 C 7.708,-44.024 0,-36.189 0,-26.504 Z"
             style="fill:#64a7d4;fill-opacity:1;fill-rule:nonzero;stroke:none"
             id="path322" /></g><g
           id="g324"
           transform="translate(521.1004,43.8961)"><path
             d="M 0,0 C 0,0.636 0.572,1.21 1.21,1.21 H 7.134 C 7.773,1.21 8.345,0.636 8.345,0 v -42.178 c 0,-0.636 -0.572,-1.21 -1.211,-1.21 H 1.21 c -0.638,0 -1.21,0.574 -1.21,1.21 z"
             style="fill:#64a7d4;fill-opacity:1;fill-rule:nonzero;stroke:none"
             id="path326" /></g><g
           id="g328"
           transform="translate(569.8101,8.2807)"><path
             d="M 0,0 C 8.281,0 14.335,6.245 14.335,14.589 14.335,22.873 8.281,29.117 0,29.117 H -7.263 V 0 Z m -15.482,35.615 c 0,0.637 0.511,1.211 1.147,1.211 H 0.764 c 12.297,0 22.362,-10.004 22.362,-22.237 0,-12.36 -10.065,-22.362 -22.362,-22.362 h -15.099 c -0.636,0 -1.147,0.574 -1.147,1.211 z"
             style="fill:#64a7d4;fill-opacity:1;fill-rule:nonzero;stroke:none"
             id="path330" /></g><g
           id="g332"
           transform="translate(412.2714,8.2807)"><path
             d="m 0,0 c 8.027,0 14.654,6.562 14.654,14.589 0,8.03 -6.627,14.718 -14.654,14.718 -8.029,0 -14.592,-6.688 -14.592,-14.718 C -14.592,6.562 -8.029,0 0,0 m 0,37.59 c 12.74,0 22.934,-10.258 22.934,-23.001 0,-12.74 -10.194,-22.87 -22.934,-22.87 -12.742,0 -22.873,10.13 -22.873,22.87 0,12.743 10.131,23.001 22.873,23.001"
             style="fill:#64a7d4;fill-opacity:1;fill-rule:nonzero;stroke:none"
             id="path334" /></g><g
           id="g336"
           transform="translate(422.4506,4.2729)"><path
             d="m 0,0 c -0.45,0.45 -0.452,1.26 0,1.712 l 4.189,4.189 c 0.451,0.451 1.262,0.45 1.712,0 l 7.158,-7.159 c 0.45,-0.449 0.451,-1.26 0,-1.711 L 8.87,-7.158 c -0.451,-0.452 -1.262,-0.45 -1.712,0 z"
             style="fill:#64a7d4;fill-opacity:1;fill-rule:nonzero;stroke:none"
             id="path338" /></g><g
           id="g340"
           transform="translate(282.7922,118.7795)"><path
             d="m 0,0 c 7.084,5.383 17.191,4.003 22.573,-3.081 5.383,-7.084 4.004,-17.19 -3.08,-22.573 -7.084,-5.383 -17.191,-4.003 -22.574,3.081 C -8.463,-15.489 -7.084,-5.383 0,0"
             style="fill:#bbdced;fill-opacity:1;fill-rule:nonzero;stroke:none"
             id="path342" /></g><g
           id="g344"
           transform="translate(65.0866,105.1198)"><path
             d="M 0,0 C -8.062,0.423 -14.254,7.302 -13.831,15.363 -13.408,23.425 -6.53,29.617 1.532,29.194 9.594,28.771 15.786,21.893 15.363,13.831 14.94,5.769 8.062,-0.423 0,0"
             style="fill:#bbdced;fill-opacity:1;fill-rule:nonzero;stroke:none"
             id="path346" /></g><g
           id="g348"
           transform="translate(90.5424,134.3668)"><path
             d="M 0,0 C 1.748,1.329 4.242,0.988 5.571,-0.76 6.899,-2.508 6.558,-5.002 4.81,-6.331 3.062,-7.659 0.568,-7.319 -0.76,-5.571 -2.088,-3.823 -1.748,-1.329 0,0"
             style="fill:#bbdcec;fill-opacity:1;fill-rule:nonzero;stroke:none"
             id="path350" /></g><g
           id="g352"
           transform="translate(131.4055,168.9049)"><path
             d="M 0,0 C 1.443,1.096 3.501,0.815 4.597,-0.627 5.693,-2.07 5.412,-4.128 3.969,-5.224 2.526,-6.32 0.469,-6.039 -0.627,-4.597 -1.723,-3.154 -1.443,-1.096 0,0"
             style="fill:#91bee2;fill-opacity:1;fill-rule:nonzero;stroke:none"
             id="path354" /></g><g
           id="g356"
           transform="translate(267.5122,96.1244)"><path
             d="M 0,0 C 1.548,1.177 3.758,0.875 4.935,-0.674 6.112,-2.222 5.81,-4.431 4.261,-5.608 2.713,-6.786 0.504,-6.483 -0.674,-4.935 -1.851,-3.387 -1.548,-1.177 0,0"
             style="fill:#bbdced;fill-opacity:1;fill-rule:nonzero;stroke:none"
             id="path358" /></g><g
           id="g360"
           transform="translate(81.4815,159.5214)"><path
             d="M 0,0 C 2.451,1.862 5.947,1.385 7.81,-1.066 9.672,-3.517 9.195,-7.014 6.744,-8.876 4.293,-10.738 0.797,-10.261 -1.066,-7.81 -2.928,-5.359 -2.451,-1.862 0,0"
             style="fill:#bbdced;fill-opacity:1;fill-rule:nonzero;stroke:none"
             id="path362" /></g><g
           id="g364"
           transform="translate(272.0237,101.4675)"><path
             d="M 0,0 C -1.407,-0.495 -2.948,0.242 -3.445,1.649 -3.94,3.056 -3.201,4.598 -1.796,5.094 -0.389,5.589 1.154,4.851 1.649,3.445 2.145,2.038 1.407,0.495 0,0"
             style="fill:#64a8d4;fill-opacity:1;fill-rule:nonzero;stroke:none"
             id="path366" /></g><g
           id="g368"
           transform="translate(262.7187,98.4714)"><path
             d="M 0,0 C -2.157,-0.76 -4.521,0.373 -5.281,2.528 -6.04,4.685 -4.908,7.049 -2.752,7.809 -0.596,8.57 1.769,7.437 2.528,5.281 3.289,3.124 2.157,0.76 0,0"
             style="fill:#bbdced;fill-opacity:1;fill-rule:nonzero;stroke:none"
             id="path370" /></g><g
           id="g372"
           transform="translate(252.5893,112.397)"><path
             d="m 0,0 c -4.731,-1.667 -9.916,0.816 -11.583,5.546 -1.667,4.731 0.816,9.917 5.546,11.584 4.731,1.666 9.916,-0.817 11.583,-5.547 C 7.213,6.853 4.731,1.667 0,0"
             style="fill:#64a7d4;fill-opacity:1;fill-rule:nonzero;stroke:none"
             id="path374" /></g><g
           id="g376"
           transform="translate(234.3452,126.601)"><path
             d="m 0,0 c -2.379,-0.838 -4.988,0.411 -5.827,2.79 -0.838,2.379 0.411,4.988 2.79,5.826 C -0.657,9.455 1.951,8.206 2.79,5.827 3.628,3.447 2.379,0.838 0,0"
             style="fill:#bbdced;fill-opacity:1;fill-rule:nonzero;stroke:none"
             id="path378" /></g><g
           id="g380"
           transform="translate(314.4862,101.6544)"><path
             d="M 0,0 C -1.303,-0.459 -2.733,0.225 -3.192,1.528 -3.651,2.832 -2.966,4.26 -1.663,4.72 -0.36,5.179 1.069,4.495 1.528,3.192 1.987,1.889 1.303,0.459 0,0"
             style="fill:#64a8d4;fill-opacity:1;fill-rule:nonzero;stroke:none"
             id="path382" /></g><g
           id="g384"
           transform="translate(285.0074,126.8342)"><path
             d="M 0,0 C -2.426,-0.855 -5.085,0.418 -5.94,2.844 -6.795,5.27 -5.521,7.929 -3.096,8.784 -0.67,9.639 1.989,8.365 2.844,5.94 3.699,3.514 2.426,0.854 0,0"
             style="fill:#bbdced;fill-opacity:1;fill-rule:nonzero;stroke:none"
             id="path386" /></g><g
           id="g388"
           transform="translate(313.7374,90.0013)"><path
             d="M 0,0 C -2.249,-0.793 -4.714,0.388 -5.507,2.637 -6.3,4.886 -5.119,7.351 -2.871,8.144 -0.621,8.937 1.845,7.756 2.637,5.507 3.429,3.258 2.249,0.793 0,0"
             style="fill:#64a8d4;fill-opacity:1;fill-rule:nonzero;stroke:none"
             id="path390" /></g><g
           id="g392"
           transform="translate(268.9214,144.9206)"><path
             d="M 0,0 C -1.935,-0.682 -4.056,0.334 -4.738,2.269 -5.42,4.203 -4.404,6.325 -2.469,7.007 -0.534,7.689 1.586,6.672 2.269,4.738 2.95,2.803 1.935,0.681 0,0"
             style="fill:#91bee2;fill-opacity:1;fill-rule:nonzero;stroke:none"
             id="path394" /></g><g
           id="g396"
           transform="translate(53.9698,89.8912)"><path
             d="m 0,0 c -3.258,0.171 -5.757,3.033 -5.581,6.393 0.176,3.36 2.96,5.945 6.22,5.774 C 3.897,11.996 6.396,9.134 6.22,5.774 6.043,2.414 3.258,-0.171 0,0"
             style="fill:#91bee2;fill-opacity:1;fill-rule:nonzero;stroke:none"
             id="path398" /></g><g
           id="g400"
           transform="translate(30.9059,118.6521)"><path
             d="M 0,0 C -1.987,0.105 -3.512,1.851 -3.405,3.9 -3.297,5.949 -1.599,7.526 0.39,7.422 2.377,7.318 3.902,5.572 3.794,3.523 3.686,1.472 1.987,-0.105 0,0"
             style="fill:#bbdced;fill-opacity:1;fill-rule:nonzero;stroke:none"
             id="path402" /></g><g
           id="g404"
           transform="translate(159.2942,191.8958)"><path
             d="m 0,0 c 4.934,5.923 13.734,6.724 19.656,1.79 5.922,-4.934 6.723,-13.734 1.79,-19.656 C 16.512,-23.788 7.712,-24.589 1.79,-19.656 -4.133,-14.722 -4.934,-5.923 0,0"
             style="fill:#64a7d4;fill-opacity:1;fill-rule:nonzero;stroke:none"
             id="path406" /></g><g
           id="g408"
           transform="translate(80.6981,133.074)"><path
             d="m 0,0 c -3.935,0.206 -6.958,3.564 -6.751,7.499 0.206,3.935 3.564,6.958 7.499,6.752 3.935,-0.207 6.958,-3.565 6.751,-7.5 C 7.293,2.816 3.935,-0.206 0,0"
             style="fill:#64a7d4;fill-opacity:1;fill-rule:nonzero;stroke:none"
             id="path410" /></g><g
           id="g412"
           transform="translate(60.9109,134.9764)"><path
             d="M 0,0 C -1.739,0.091 -3.075,1.575 -2.984,3.314 -2.892,5.054 -1.409,6.39 0.331,6.299 2.07,6.208 3.406,4.723 3.314,2.984 3.223,1.245 1.739,-0.091 0,0"
             style="fill:#bbdced;fill-opacity:1;fill-rule:nonzero;stroke:none"
             id="path414" /></g><g
           id="g416"
           transform="translate(44.7343,127.6543)"><path
             d="m 0,0 c -3.184,0.167 -5.63,2.884 -5.462,6.068 0.167,3.184 2.883,5.63 6.067,5.462 C 3.79,11.363 6.235,8.647 6.068,5.462 5.901,2.278 3.184,-0.167 0,0"
             style="fill:#64a7d4;fill-opacity:1;fill-rule:nonzero;stroke:none"
             id="path418" /></g><g
           id="g420"
           transform="translate(155.3289,152.2008)"><path
             d="m 0,0 c -4.114,-1.45 -8.624,0.71 -10.073,4.824 -1.45,4.114 0.71,8.623 4.823,10.073 4.114,1.45 8.624,-0.71 10.074,-4.824 C 6.273,5.96 4.114,1.45 0,0"
             style="fill:#91bee2;fill-opacity:1;fill-rule:nonzero;stroke:none"
             id="path422" /></g><g
           id="g424"
           transform="translate(263.5446,138.9083)"><path
             d="M 0,0 C 2.451,1.862 5.947,1.385 7.81,-1.066 9.672,-3.517 9.195,-7.014 6.744,-8.876 4.293,-10.738 0.797,-10.261 -1.066,-7.81 -2.928,-5.359 -2.451,-1.862 0,0"
             style="fill:#91bee2;fill-opacity:1;fill-rule:nonzero;stroke:none"
             id="path426" /></g><g
           id="g428"
           transform="translate(239.4251,165.4687)"><path
             d="M 0,0 C 5.269,4.003 12.784,2.977 16.788,-2.291 20.79,-7.559 19.765,-15.075 14.496,-19.078 9.228,-23.082 1.712,-22.055 -2.291,-16.788 -6.294,-11.519 -5.269,-4.003 0,0"
             style="fill:#bbdced;fill-opacity:1;fill-rule:nonzero;stroke:none"
             id="path430" /></g><g
           id="g432"
           transform="translate(1.3098,97.8299)"><path
             d="M 0,0 C 1.713,2.056 4.768,2.334 6.824,0.622 8.88,-1.091 9.158,-4.147 7.445,-6.203 5.732,-8.259 2.678,-8.536 0.622,-6.824 -1.434,-5.111 -1.713,-2.056 0,0"
             style="fill:#64a7d4;fill-opacity:1;fill-rule:nonzero;stroke:none"
             id="path434" /></g><g
           id="g436"
           transform="translate(69.7257,156.2232)"><path
             d="m 0,0 c 2.747,-1.045 4.127,-4.118 3.082,-6.864 -1.044,-2.747 -4.118,-4.128 -6.864,-3.083 -2.747,1.045 -4.127,4.118 -3.082,6.865 C -5.82,-0.336 -2.747,1.045 0,0"
             style="fill:#91bee2;fill-opacity:1;fill-rule:nonzero;stroke:none"
             id="path438" /></g><g
           id="g440"
           transform="translate(210.147,163.4919)"><path
             d="m 0,0 c -1.997,-4.947 -7.627,-7.339 -12.574,-5.342 -4.947,1.997 -7.339,7.626 -5.342,12.573 1.997,4.949 7.627,7.34 12.574,5.343 C -0.394,10.577 1.997,4.947 0,0"
             style="fill:#bbdced;fill-opacity:1;fill-rule:nonzero;stroke:none"
             id="path442" /></g><g
           id="g444"
           transform="translate(39.2226,114.6639)"><path
             d="M 0,0 C 2.316,2.78 6.448,3.157 9.229,0.84 12.01,-1.476 12.386,-5.608 10.07,-8.388 7.753,-11.169 3.62,-11.546 0.84,-9.229 -1.94,-6.912 -2.316,-2.78 0,0"
             style="fill:#64a7d4;fill-opacity:1;fill-rule:nonzero;stroke:none"
             id="path446" /></g><g
           id="g448"
           transform="translate(177.05,167.7051)"><path
             d="M 0,0 C 1.674,2.009 4.659,2.281 6.669,0.607 8.677,-1.066 8.949,-4.052 7.275,-6.061 5.602,-8.071 2.617,-8.342 0.607,-6.669 -1.402,-4.995 -1.674,-2.009 0,0"
             style="fill:#91bee2;fill-opacity:1;fill-rule:nonzero;stroke:none"
             id="path450" /></g><g
           id="g452"
           transform="translate(167.8035,158.6049)"><path
             d="M 0,0 C 1.478,1.774 4.113,2.013 5.886,0.536 7.66,-0.942 7.9,-3.577 6.422,-5.351 4.945,-7.125 2.31,-7.364 0.536,-5.886 -1.238,-4.409 -1.478,-1.774 0,0"
             style="fill:#bbdced;fill-opacity:1;fill-rule:nonzero;stroke:none"
             id="path454" /></g><g
           id="g456"
           transform="translate(203.0632,184.7015)"><path
             d="m 0,0 c -1.161,-2.876 -4.433,-4.266 -7.309,-3.105 -2.876,1.16 -4.266,4.433 -3.106,7.309 1.162,2.875 4.434,4.266 7.31,3.105 C -0.229,6.148 1.161,2.876 0,0"
             style="fill:#91bee2;fill-opacity:1;fill-rule:nonzero;stroke:none"
             id="path458" /></g><g
           id="g460"
           transform="translate(253.5972,134.9557)"><path
             d="m 0,0 c -0.806,-1.997 -3.078,-2.962 -5.075,-2.156 -1.997,0.806 -2.962,3.078 -2.156,5.075 0.806,1.997 3.078,2.962 5.075,2.156 C -0.16,4.269 0.806,1.997 0,0"
             style="fill:#91bee2;fill-opacity:1;fill-rule:nonzero;stroke:none"
             id="path462" /></g><g
           id="g464"
           transform="translate(230.1816,159.1104)"><path
             d="m 0,0 c -1.066,-2.639 -4.148,-3.883 -6.885,-2.777 -2.738,1.104 -4.094,4.14 -3.029,6.779 1.066,2.639 4.148,3.882 6.886,2.777 C -0.291,5.674 1.065,2.639 0,0"
             style="fill:#64a7d4;fill-opacity:1;fill-rule:nonzero;stroke:none"
             id="path466" /></g><g
           id="g468"
           transform="translate(274.206,115.6331)"><path
             d="m 0,0 c -1.289,-3.193 -4.922,-4.736 -8.114,-3.447 -3.193,1.288 -4.737,4.921 -3.448,8.114 1.289,3.193 4.922,4.736 8.115,3.447 C -0.255,6.826 1.289,3.193 0,0"
             style="fill:#bbdced;fill-opacity:1;fill-rule:nonzero;stroke:none"
             id="path470" /></g><g
           id="g472"
           transform="translate(16.3956,112.9997)"><path
             d="M 0,0 C 5.017,3.811 12.173,2.835 15.984,-2.181 19.796,-7.198 18.82,-14.354 13.803,-18.166 8.786,-21.977 1.63,-21.001 -2.181,-15.984 -5.993,-10.968 -5.017,-3.811 0,0"
             style="fill:#bbdced;fill-opacity:1;fill-rule:nonzero;stroke:none"
             id="path474" /></g><g
           id="g476"
           transform="translate(239.5919,170.6775)"><path
             d="M 0,0 C -0.933,-2.314 -3.565,-3.431 -5.879,-2.498 -8.191,-1.564 -9.31,1.068 -8.377,3.381 -7.442,5.694 -4.81,6.812 -2.498,5.879 -0.184,4.945 0.933,2.313 0,0"
             style="fill:#bbdced;fill-opacity:1;fill-rule:nonzero;stroke:none"
             id="path478" /></g><g
           id="g480"
           transform="translate(218.9252,145.94)"><path
             d="m 0,0 c -1.627,-4.032 -6.215,-5.981 -10.246,-4.353 -4.032,1.627 -5.981,6.215 -4.354,10.246 1.628,4.032 6.215,5.981 10.247,4.353 C -0.321,8.619 1.627,4.032 0,0"
             style="fill:#91bee2;fill-opacity:1;fill-rule:nonzero;stroke:none"
             id="path482" /></g><g
           id="g484"
           transform="translate(103.3376,161.251)"><path
             d="m 0,0 c 5.747,2.893 12.751,0.579 15.644,-5.168 2.893,-5.747 0.579,-12.751 -5.168,-15.644 C 4.73,-23.704 -2.275,-21.391 -5.168,-15.644 -8.06,-9.897 -5.747,-2.893 0,0"
             style="fill:#64a7d4;fill-opacity:1;fill-rule:nonzero;stroke:none"
             id="path486" /></g><g
           id="g488"
           transform="translate(90.162,164.6579)"><path
             d="m 0,0 c -3.831,2.055 -5.271,6.827 -3.216,10.659 2.055,3.83 6.828,5.27 10.658,3.215 C 11.274,11.818 12.714,7.047 10.659,3.216 8.603,-0.616 3.831,-2.055 0,0"
             style="fill:#bbdced;fill-opacity:1;fill-rule:nonzero;stroke:none"
             id="path490" /></g><g
           id="g492"
           transform="translate(73.3145,161.9261)"><path
             d="M 0,0 C -1.583,0.849 -2.177,2.819 -1.328,4.402 -0.479,5.983 1.491,6.578 3.074,5.73 4.656,4.881 5.251,2.91 4.402,1.328 3.553,-0.254 1.583,-0.849 0,0"
             style="fill:#bbdced;fill-opacity:1;fill-rule:nonzero;stroke:none"
             id="path494" /></g><g
           id="g496"
           transform="translate(54.234,146.9078)"><path
             d="M 0,0 C -1.019,0.547 -1.401,1.815 -0.855,2.833 -0.309,3.852 0.96,4.234 1.979,3.689 2.997,3.142 3.38,1.873 2.833,0.854 2.287,-0.164 1.019,-0.547 0,0"
             style="fill:#91bee2;fill-opacity:1;fill-rule:nonzero;stroke:none"
             id="path498" /></g><g
           id="g500"
           transform="translate(151.5454,172.7437)"><path
             d="m 0,0 c -2.565,-1.701 -6.024,-1.002 -7.726,1.564 -1.701,2.565 -1.001,6.024 1.564,7.725 2.565,1.702 6.024,1.002 7.726,-1.563 C 3.265,5.16 2.565,1.701 0,0"
             style="fill:#bbdced;fill-opacity:1;fill-rule:nonzero;stroke:none"
             id="path502" /></g><g
           id="g504"
           transform="translate(110.3408,180.7682)"><path
             d="M 0,0 C -1.469,-0.975 -3.451,-0.574 -4.426,0.895 -5.401,2.365 -5,4.347 -3.53,5.321 -2.061,6.296 -0.079,5.895 0.895,4.425 1.871,2.956 1.469,0.975 0,0"
             style="fill:#bbdced;fill-opacity:1;fill-rule:nonzero;stroke:none"
             id="path506" /></g><g
           id="g508"
           transform="translate(121.9896,163.5596)"><path
             d="m 0,0 c -3.231,-2.143 -7.587,-1.261 -9.73,1.969 -2.144,3.231 -1.262,7.587 1.969,9.731 3.231,2.143 7.587,1.261 9.73,-1.97 C 4.113,6.499 3.231,2.143 0,0"
             style="fill:#91bee2;fill-opacity:1;fill-rule:nonzero;stroke:none"
             id="path510" /></g><g
           id="g512"
           transform="translate(191.647,149.7107)"><path
             d="M 0,0 C -2.274,-1.508 -5.34,-0.888 -6.849,1.386 -8.358,3.66 -7.737,6.727 -5.462,8.235 -3.189,9.743 -0.123,9.123 1.386,6.849 2.894,4.575 2.274,1.508 0,0"
             style="fill:#64a7d4;fill-opacity:1;fill-rule:nonzero;stroke:none"
             id="path514" /></g><g
           id="g516"
           transform="translate(192.3558,174.7252)"><path
             d="m 0,0 c -1.622,-1.076 -3.81,-0.633 -4.886,0.988 -1.076,1.623 -0.634,3.81 0.989,4.887 1.622,1.076 3.81,0.633 4.885,-0.989 C 2.064,3.264 1.622,1.076 0,0"
             style="fill:#bbdced;fill-opacity:1;fill-rule:nonzero;stroke:none"
             id="path518" /></g><g
           id="g520"
           transform="translate(128.4227,179.752)"><path
             d="m 0,0 c -3.057,-2.027 -7.178,-1.194 -9.206,1.863 -2.028,3.057 -1.193,7.178 1.863,9.206 3.057,2.028 7.179,1.193 9.206,-1.863 C 3.89,6.15 3.057,2.027 0,0"
             style="fill:#91bee2;fill-opacity:1;fill-rule:nonzero;stroke:none"
             id="path522" /></g><g
           id="g524"
           transform="translate(134.1799,148.6236)"><path
             d="m 0,0 c -2.563,-1.7 -6.019,-1.001 -7.719,1.563 -1.699,2.562 -1,6.018 1.563,7.718 2.562,1.7 6.018,1 7.719,-1.562 C 3.262,5.155 2.563,1.7 0,0"
             style="fill:#bbdced;fill-opacity:1;fill-rule:nonzero;stroke:none"
             id="path526" /></g><g
           id="g528"
           transform="translate(95.2647,142.7534)"><path
             d="m 0,0 c -1.15,-0.763 -2.7,-0.449 -3.464,0.701 -0.762,1.15 -0.448,2.701 0.702,3.463 1.149,0.763 2.7,0.45 3.463,-0.7 C 1.464,2.313 1.15,0.763 0,0"
             style="fill:#bbdced;fill-opacity:1;fill-rule:nonzero;stroke:none"
             id="path530" /></g><g
           id="g532"
           transform="translate(221.932,172.6147)"><path
             d="m 0,0 c -3.284,-2.179 -7.711,-1.282 -9.89,2.002 -2.178,3.284 -1.282,7.711 2.002,9.89 3.284,2.178 7.711,1.282 9.89,-2.002 C 4.18,6.606 3.284,2.179 0,0"
             style="fill:#64a7d4;fill-opacity:1;fill-rule:nonzero;stroke:none"
             id="path534" /></g><g
           id="g536"
           transform="translate(144.105,194.6255)"><path
             d="M 0,0 C 1.303,1.564 3.627,1.776 5.191,0.472 6.755,-0.83 6.966,-3.155 5.663,-4.718 4.361,-6.282 2.037,-6.494 0.472,-5.191 -1.091,-3.888 -1.303,-1.564 0,0"
             style="fill:#bbdced;fill-opacity:1;fill-rule:nonzero;stroke:none"
             id="path538" /></g><g
           id="g540"
           transform="translate(136.0763,183.5923)"><path
             d="M 0,0 C 0.933,1.121 2.599,1.272 3.719,0.338 4.839,-0.595 4.991,-2.26 4.058,-3.38 3.124,-4.501 1.459,-4.653 0.338,-3.719 -0.782,-2.786 -0.933,-1.121 0,0"
             style="fill:#91bee2;fill-opacity:1;fill-rule:nonzero;stroke:none"
             id="path542" /></g><g
           id="g544"
           transform="translate(227.6101,147.0568)"><path
             d="M 0,0 C 1.717,1.304 4.166,0.97 5.47,-0.746 6.774,-2.464 6.441,-4.912 4.724,-6.217 3.007,-7.521 0.558,-7.187 -0.746,-5.47 -2.051,-3.754 -1.717,-1.304 0,0"
             style="fill:#bbdced;fill-opacity:1;fill-rule:nonzero;stroke:none"
             id="path546" /></g><g
           id="g548"
           transform="translate(321.6031,94.8948)"><path
             d="M 0,0 C 1.099,1.318 3.058,1.497 4.377,0.398 5.695,-0.7 5.874,-2.659 4.775,-3.978 3.677,-5.297 1.718,-5.475 0.398,-4.377 -0.92,-3.278 -1.099,-1.318 0,0"
             style="fill:#bbdced;fill-opacity:1;fill-rule:nonzero;stroke:none"
             id="path550" /></g><g
           id="g552"
           transform="translate(42.1127,93.5018)"><path
             d="m 0,0 c 0,-2.045 -1.659,-3.704 -3.704,-3.704 -2.046,0 -3.703,1.659 -3.703,3.704 0,2.045 1.657,3.704 3.703,3.704 C -1.659,3.704 0,2.045 0,0"
             style="fill:#bbdced;fill-opacity:1;fill-rule:nonzero;stroke:none"
             id="path554" /></g></g></g></g></svg>
